{"title":"Aabhas 2005 Marathi 1080p Untouched WebHD x264 AAC [TMB]","uid":15552039,"size":3094104970,"categoryP":"video","categoryS":"movies","magnet":"?xt=urn:btih:5231aadd13bf3fa3dc80f3d283c67ae00623feef&amp;dn=Aabhas+2005+Marathi+1080p+Untouched+WebHD+x264+AAC+%5BTMB%5D&amp;tr=udp%3A%2F%2Ftracker.leechers-paradise.org%3A6969&amp;tr=udp%3A%2F%2Fzer0day.ch%3A1337&amp;tr=udp%3A%2F%2Fopen.demonii.com%3A1337&amp;tr=udp%3A%2F%2Ftracker.coppersurfer.tk%3A6969&amp;tr=udp%3A%2F%2Fexodus.desync.com%3A6969","seeders":0,"leechers":1,"uploader":"Manoj_vb","files":1,"time":1471035526,"description":"http://i1306.photobucket.com/albums/s570/zyx55e/44_zpsc46e809d.gif\r\n \nhttp://s25.postimg.org/vc0deb94v/aabhas_1344669146.jpg\r\n \nhttp://s25.postimg.org/h9efzc3r3/vlcsnap_0363_03_24_03h52m32s771.png\r\n \nhttp://s25.postimg.org/ckyg45ekf/vlcsnap_2978_09_18_00h27m36s852.png\r\n \nhttp://s25.postimg.org/uhdtsa1a7/vlcsnap_3712_03_28_20h49m46s666.png\r\n \nhttp://s25.postimg.org/c38clevb3/vlcsnap_6825_06_03_19h48m46s289.png\r\n \nhttp://s25.postimg.org/tdtpgbgn3/vlcsnap_8146_10_14_14h03m26s625.png\r\n \nhttp://s25.postimg.org/wtltpvdvj/vlcsnap_8660_12_29_14h37m06s009.png\r\n \nhttp://s25.postimg.org/8fnji8gsf/vlcsnap_8680_12_31_06h30m31s878.png\r\n \nhttp://s25.postimg.org/ql5jtemm7/vlcsnap_9526_01_20_09h01m38s953.png\r\n \nhttp://i1306.photobucket.com/albums/s570/zyx55e/oie_11162011MOJeDGQI_zpsc25b2b81.gif\r\n\r\nGeneral\r\nComplete name               : Aabhas 2005 1080p Untouched WebHD x264 AAC [TMB].mp4\r\nFormat                      : MPEG-4\r\nFormat profile              : Base Media\r\nCodec ID                    : isom (isom/iso2/avc1/mp41)\r\nFile size                   : 2.88 GiB\r\nDuration                    : 1h 57mn\r\nOverall bit rate mode       : Variable\r\nOverall bit rate            : 3 525 Kbps\r\n\r\nVideo\r\nFormat                      : AVC\r\nFormat/Info                 : Advanced Video Codec\r\nFormat profile              :   \r\nFormat settings, CABAC      : Yes\r\nFormat settings, ReFrames   : 2 frames\r\nCodec ID                    : avc1\r\nCodec ID/Info               : Advanced Video Coding\r\nDuration                    : 1h 57mn\r\nBit rate                    : 3 396 Kbps\r\nWidth                       : 1 920 pixels\r\nHeight                      : 1 080 pixels\r\nDisplay aspect ratio        : 16:9\r\nFrame rate mode             : Constant\r\nFrame rate                  : 25.000 fps\r\nColor space                 : YUV\r\nChroma subsampling          : 4:2:0\r\nBit depth                   : 8 bits\r\nScan type                   : Progressive\r\nBits/(Pixel*Frame)          : 0.066\r\nStream size                 : 2.78 GiB (96%)\r\n\r\nAudio\r\nFormat                      : AAC\r\nFormat/Info                 : Advanced Audio Codec\r\nFormat profile              : LC\r\nCodec ID                    : 40\r\nDuration                    : 1h 57mn\r\nBit rate mode               : Variable\r\nBit rate                    : 126 Kbps\r\nChannel(s)                  : 2 channels\r\nChannel positions           : Front: L R\r\nSampling rate               : 44.1 KHz\r\nFrame rate                  : 43.066 fps (1024 spf)\r\nCompression mode            : Lossy\r\nStream size                 : 105 MiB (4%)\r\n\r\nShared by Manojvb\r\n\r\nSeeding 24x7... Extreme Seeding...\r\n\r\n \nhttp://i1306.photobucket.com/albums/s570/zyx55e/oie_1117625zVIGKvnK_zpsc8b6e055.gif","torrent":{"xt":"urn:btih:5231aadd13bf3fa3dc80f3d283c67ae00623feef","amp;dn":"Aabhas+2005+Marathi+1080p+Untouched+WebHD+x264+AAC+%5BTMB%5D","amp;tr":["udp%3A%2F%2Ftracker.leechers-paradise.org%3A6969","udp%3A%2F%2Fzer0day.ch%3A1337","udp%3A%2F%2Fopen.demonii.com%3A1337","udp%3A%2F%2Ftracker.coppersurfer.tk%3A6969","udp%3A%2F%2Fexodus.desync.com%3A6969"],"infoHash":"5231aadd13bf3fa3dc80f3d283c67ae00623feef","infoHashBuffer":{"type":"Buffer","data":[82,49,170,221,19,191,63,163,220,128,243,210,131,198,122,224,6,35,254,239]},"announce":[],"urlList":[]}}